<?xml version="1.0" standalone="no"?>
<!DOCTYPE svg PUBLIC "-//W3C//DTD SVG 20010904//EN"
 "http://www.w3.org/TR/2001/REC-SVG-20010904/DTD/svg10.dtd">
<svg version="1.0" xmlns="http://www.w3.org/2000/svg"
 width="320.000000pt" height="316.000000pt" viewBox="0 0 320.000000 316.000000"
 preserveAspectRatio="xMidYMid meet">

<g transform="translate(0.000000,316.000000) scale(0.100000,-0.100000)"
fill="#000000" stroke="none">
<path d="M0 1580 l0 -1580 1600 0 1600 0 0 1580 0 1580 -1600 0 -1600 0 0
-1580z m885 220 c0 -8 -10 -16 -22 -18 -22 -3 -32 16 -16 32 12 11 38 2 38
-14z m476 -22 c1 -38 1 -138 0 -154 -1 -16 -114 -16 -136 0 -25 18 -25 78 0
106 12 13 30 20 57 20 33 0 38 3 38 23 0 49 40 53 41 5z m-933 11 c66 -23 83
-100 33 -150 -27 -26 -36 -29 -95 -29 l-66 0 0 95 0 95 49 0 c26 0 62 -5 79
-11z m1104 -66 l3 -78 48 -3 c34 -2 47 -7 47 -18 0 -12 -14 -14 -72 -12 l-73
3 -1 85 c-2 95 -1 100 26 100 17 0 20 -9 22 -77z m-369 9 c9 -8 17 -26 17 -39
0 -21 -4 -23 -51 -23 -36 0 -49 -4 -46 -12 2 -8 21 -13 43 -13 28 0 39 -4 39
-15 0 -11 -13 -16 -47 -18 -37 -2 -51 1 -67 17 -28 28 -27 72 2 98 37 34 74
36 110 5z m-520 1 c8 -10 17 -27 19 -38 3 -18 -3 -20 -50 -23 -63 -4 -68 -27
-6 -27 28 0 39 -4 39 -15 0 -11 -13 -16 -46 -18 -41 -3 -50 1 -68 24 -26 34
-27 54 0 88 25 32 86 37 112 9z m162 2 c0 -5 -17 -11 -37 -13 -46 -4 -49 -19
-6 -30 39 -10 57 -35 42 -59 -8 -13 -27 -19 -63 -21 -46 -3 -52 -1 -49 15 2
10 11 16 19 14 29 -8 52 -6 56 5 2 7 -13 16 -34 21 -41 9 -56 41 -32 69 14 17
104 16 104 -1z m75 -55 c0 -63 -2 -70 -20 -70 -18 0 -20 7 -20 70 0 63 2 70
20 70 18 0 20 -7 20 -70z m140 56 c0 -7 -11 -18 -24 -24 -20 -9 -25 -20 -28
-54 -2 -35 -7 -43 -23 -43 -17 0 -20 7 -22 55 -1 30 0 60 2 67 5 16 95 15 95
-1z m750 -6 c11 -11 20 -29 20 -40 0 -18 -7 -20 -55 -20 -30 0 -55 -4 -55 -10
0 -11 36 -21 65 -17 12 1 20 -4 20 -13 0 -23 -82 -26 -106 -4 -28 25 -26 88 3
108 31 22 84 20 108 -4z m161 4 c7 -8 15 -40 17 -70 l5 -55 -69 3 c-63 3 -69
5 -72 26 -5 33 15 52 55 52 23 0 33 4 30 13 -2 7 -19 12 -41 11 -34 -1 -47 12
-29 29 13 14 90 7 104 -9z m149 0 c0 -8 -11 -19 -24 -24 -20 -7 -25 -17 -28
-52 -2 -35 -7 -43 -23 -43 -17 0 -20 7 -22 55 -1 30 -1 60 2 67 6 17 95 15 95
-3z m159 2 c6 -7 12 -38 14 -67 2 -49 0 -54 -20 -57 -21 -3 -23 0 -23 46 0 35
-4 52 -15 56 -30 11 -44 -5 -47 -52 -3 -39 -6 -47 -23 -47 -18 0 -20 7 -21 60
0 33 1 63 2 66 7 13 122 9 133 -5z m173 1 c9 -7 20 -25 23 -40 7 -27 7 -27
-50 -27 -41 0 -55 -3 -52 -12 2 -7 21 -13 43 -14 27 0 39 -5 39 -15 0 -10 -14
-15 -46 -17 -41 -3 -49 0 -68 25 -24 30 -22 64 6 96 19 20 80 23 105 4z m148
-3 c0 -8 -4 -14 -9 -14 -22 0 -41 -34 -41 -71 0 -32 -3 -39 -20 -39 -18 0 -20
7 -20 69 l0 69 45 0 c32 0 45 -4 45 -14z m135 1 c0 -5 -17 -11 -37 -13 -49 -4
-48 -18 1 -32 45 -12 55 -29 35 -59 -12 -17 -26 -21 -65 -21 -43 0 -50 3 -47
18 2 9 11 15 19 13 29 -8 52 -6 56 5 2 7 -13 16 -34 21 -41 9 -56 41 -32 69
14 17 104 16 104 -1z m-1536 -362 c-1 -38 -1 -38 -9 -9 -8 27 -6 46 6 46 2 0
4 -17 3 -37z m461 2 c0 -14 -2 -25 -4 -25 -2 0 -6 11 -8 25 -3 14 -1 25 3 25
5 0 9 -11 9 -25z m42 3 c-7 -7 -12 -8 -12 -2 0 6 3 14 7 17 3 4 9 5 12 2 2 -3
-1 -11 -7 -17z m-1352 8 c0 -3 -4 -8 -10 -11 -5 -3 -10 -1 -10 4 0 6 5 11 10
11 6 0 10 -2 10 -4z m50 -18 c0 -16 -3 -19 -11 -11 -6 6 -8 16 -5 22 11 17 16
13 16 -11z m130 12 c0 -5 -2 -10 -4 -10 -3 0 -8 5 -11 10 -3 6 -1 10 4 10 6 0
11 -4 11 -10z m270 -14 c0 -14 -4 -27 -9 -30 -4 -3 -8 8 -7 24 1 36 16 41 16
6z m170 20 c0 -3 -4 -8 -10 -11 -5 -3 -10 -1 -10 4 0 6 5 11 10 11 6 0 10 -2
10 -4z m47 -33 c-3 -10 -5 -4 -5 12 0 17 2 24 5 18 2 -7 2 -21 0 -30z m40 15
c-3 -8 -6 -5 -6 6 -1 11 2 17 5 13 3 -3 4 -12 1 -19z m93 -3 c0 -14 -3 -25 -7
-25 -5 0 -8 11 -8 25 0 14 3 25 8 25 4 0 7 -11 7 -25z m96 3 c-1 -17 4 -23 18
-21 13 1 15 -2 7 -10 -15 -15 -46 16 -38 37 9 22 14 20 13 -6z m86 -3 c-2 -14
-6 -25 -8 -25 -2 0 -4 11 -4 25 0 14 4 25 9 25 4 0 6 -11 3 -25z m168 15 c0
-5 -2 -10 -4 -10 -3 0 -8 5 -11 10 -3 6 -1 10 4 10 6 0 11 -4 11 -10z m40 6
c0 -3 -4 -8 -10 -11 -5 -3 -10 -1 -10 4 0 6 5 11 10 11 6 0 10 -2 10 -4z m67
-33 c-3 -10 -5 -4 -5 12 0 17 2 24 5 18 2 -7 2 -21 0 -30z m263 23 c0 -7 -11
-16 -25 -18 -16 -4 -25 -1 -25 7 0 8 8 11 20 8 11 -3 20 0 20 6 0 6 2 11 5 11
3 0 5 -6 5 -14z m267 -23 c-3 -10 -5 -4 -5 12 0 17 2 24 5 18 2 -7 2 -21 0
-30z m45 12 c-2 -14 -6 -25 -8 -25 -2 0 -4 11 -4 25 0 14 4 25 9 25 4 0 6 -11
3 -25z m41 12 c3 -8 1 -20 -4 -28 -6 -10 -9 -7 -9 14 0 29 5 35 13 14z m-1346
-19 c-3 -8 -6 -5 -6 6 -1 11 2 17 5 13 3 -3 4 -12 1 -19z m1430 0 c-3 -8 -6
-5 -6 6 -1 11 2 17 5 13 3 -3 4 -12 1 -19z m333 13 c0 -6 -4 -13 -10 -16 -5
-3 -10 1 -10 9 0 9 5 16 10 16 6 0 10 -4 10 -9z m-1222 -26 c-3 -3 -9 2 -12
12 -6 14 -5 15 5 6 7 -7 10 -15 7 -18z m146 10 c-7 -16 -24 -21 -24 -6 0 8 7
13 27 20 1 1 0 -6 -3 -14z m-1034 -5 c0 -5 -5 -10 -11 -10 -5 0 -7 5 -4 10 3
6 8 10 11 10 2 0 4 -4 4 -10z m990 0 c0 -5 -4 -10 -10 -10 -5 0 -10 5 -10 10
0 6 5 10 10 10 6 0 10 -4 10 -10z"/>
<path d="M1262 1708 c-19 -19 -14 -56 8 -63 24 -8 50 10 50 34 0 19 -19 41
-35 41 -6 0 -16 -5 -23 -12z"/>
<path d="M342 1703 c3 -54 5 -58 29 -61 31 -4 79 32 79 59 0 31 -36 59 -75 59
l-36 0 3 -57z"/>
<path d="M1087 1714 c-15 -15 -6 -24 24 -24 20 0 29 4 27 13 -5 14 -40 21 -51
11z"/>
<path d="M567 1714 c-15 -15 -6 -24 24 -24 20 0 29 4 27 13 -5 14 -40 21 -51
11z"/>
<path d="M1687 1713 c-15 -14 -6 -23 22 -23 34 0 49 15 25 24 -21 8 -39 8 -47
-1z"/>
<path d="M1854 1659 c-3 -6 -2 -15 3 -20 13 -13 43 -1 43 17 0 16 -36 19 -46
3z"/>
<path d="M2337 1713 c-15 -14 -6 -23 23 -23 20 0 30 5 30 15 0 15 -40 21 -53
8z"/>
</g>
</svg>
